<svg width="132" height="22" viewBox="0 0 132 22" fill="none" xmlns="http://www.w3.org/2000/svg">
<path d="M126.307 16.6119C125.237 16.6119 124.273 16.3709 123.415 15.8889C122.571 15.3918 121.901 14.7064 121.404 13.8327C120.907 12.944 120.658 11.9122 120.658 10.7372C120.658 9.56229 120.907 8.53799 121.404 7.66432C121.916 6.77558 122.601 6.09021 123.46 5.60818C124.319 5.11109 125.275 4.86255 126.33 4.86255C127.399 4.86255 128.356 5.11109 129.199 5.60818C130.058 6.09021 130.736 6.77558 131.233 7.66432C131.745 8.53799 132.001 9.56229 132.001 10.7372C132.001 11.9122 131.745 12.944 131.233 13.8327C130.736 14.7064 130.058 15.3918 129.199 15.8889C128.34 16.3709 127.376 16.6119 126.307 16.6119ZM126.307 14.5558C126.879 14.5558 127.407 14.4127 127.889 14.1265C128.386 13.8403 128.785 13.4185 129.086 12.8611C129.387 12.2887 129.538 11.5808 129.538 10.7372C129.538 9.89368 129.387 9.19324 129.086 8.6359C128.8 8.06349 128.408 7.63419 127.911 7.34799C127.429 7.06179 126.902 6.91869 126.33 6.91869C125.757 6.91869 125.222 7.06179 124.725 7.34799C124.243 7.63419 123.852 8.06349 123.55 8.6359C123.249 9.19324 123.098 9.89368 123.098 10.7372C123.098 11.5808 123.249 12.2887 123.55 12.8611C123.852 13.4185 124.243 13.8403 124.725 14.1265C125.207 14.4127 125.735 14.5558 126.307 14.5558Z" fill="#004AAD"/>
<path d="M101.949 16.3408V5.13369H104.073L104.276 6.71533C104.638 6.14293 105.112 5.69103 105.7 5.35964C106.302 5.02825 106.995 4.86255 107.779 4.86255C109.556 4.86255 110.791 5.56299 111.484 6.96388C111.891 6.31615 112.433 5.804 113.111 5.42742C113.804 5.05084 114.55 4.86255 115.348 4.86255C116.749 4.86255 117.848 5.28432 118.647 6.12786C119.445 6.97141 119.844 8.22919 119.844 9.90121V16.3408H117.449V10.1498C117.449 7.98065 116.621 6.89609 114.964 6.89609C114.12 6.89609 113.427 7.21242 112.885 7.84508C112.358 8.47773 112.094 9.38153 112.094 10.5565V16.3408H109.699V10.1498C109.699 7.98065 108.863 6.89609 107.191 6.89609C106.363 6.89609 105.677 7.21242 105.135 7.84508C104.608 8.47773 104.344 9.38153 104.344 10.5565V16.3408H101.949Z" fill="#004AAD"/>
<path d="M92.2598 16.3407V14.3976L98.2474 7.12202H92.3501V5.13367H100.959V7.07683L94.926 14.3524H101.072V16.3407H92.2598Z" fill="#004AAD"/>
<path d="M90.229 3.00973C89.7771 3.00973 89.4005 2.87416 89.0992 2.60302C88.813 2.31682 88.6699 1.96283 88.6699 1.54106C88.6699 1.11929 88.813 0.77283 89.0992 0.501691C89.4005 0.215489 89.7771 0.0723877 90.229 0.0723877C90.6809 0.0723877 91.0499 0.215489 91.3361 0.501691C91.6374 0.77283 91.788 1.11929 91.788 1.54106C91.788 1.96283 91.6374 2.31682 91.3361 2.60302C91.0499 2.87416 90.6809 3.00973 90.229 3.00973ZM89.0314 16.3407V5.13365H91.4265V16.3407H89.0314Z" fill="#004AAD"/>
<path d="M82.3759 12.9063C81.7885 12.9063 81.2462 12.8386 80.7491 12.703L79.7775 13.652C79.9432 13.7574 80.1466 13.8478 80.3876 13.9231C80.6286 13.9984 80.9675 14.0662 81.4044 14.1265C81.8412 14.1867 82.4362 14.247 83.1894 14.3072C84.6806 14.4428 85.7576 14.8043 86.4204 15.3918C87.0832 15.9642 87.4146 16.7324 87.4146 17.6965C87.4146 18.3592 87.2338 18.9844 86.8723 19.5718C86.5259 20.1744 85.9761 20.6564 85.2229 21.0179C84.4848 21.3945 83.5358 21.5828 82.3759 21.5828C80.8094 21.5828 79.5365 21.2815 78.5574 20.679C77.5933 20.0915 77.1113 19.1953 77.1113 17.9902C77.1113 17.5232 77.2318 17.0563 77.4728 16.5893C77.7289 16.1374 78.1281 15.7081 78.6704 15.3014C78.354 15.1658 78.0754 15.0227 77.8344 14.8721C77.6084 14.7064 77.4051 14.5407 77.2243 14.375V13.8327L79.1675 11.8444C78.2938 11.0912 77.857 10.1046 77.857 8.88444C77.857 8.14634 78.0302 7.47603 78.3766 6.8735C78.7382 6.2559 79.2578 5.76635 79.9357 5.40483C80.6135 5.04331 81.427 4.86255 82.3759 4.86255C83.0086 4.86255 83.5961 4.95293 84.1383 5.13369H88.3184V6.71533L86.3301 6.82831C86.6916 7.4459 86.8723 8.13128 86.8723 8.88444C86.8723 9.63761 86.6916 10.3155 86.3301 10.918C85.9836 11.5205 85.4714 12.0025 84.7936 12.3641C84.1308 12.7256 83.3249 12.9063 82.3759 12.9063ZM82.3759 11.031C83.0689 11.031 83.6262 10.8502 84.048 10.4887C84.4848 10.1121 84.7032 9.58489 84.7032 8.90704C84.7032 8.21413 84.4848 7.68691 84.048 7.32539C83.6262 6.96388 83.0689 6.78312 82.3759 6.78312C81.668 6.78312 81.0956 6.96388 80.6587 7.32539C80.237 7.68691 80.0261 8.21413 80.0261 8.90704C80.0261 9.58489 80.237 10.1121 80.6587 10.4887C81.0956 10.8502 81.668 11.031 82.3759 11.031ZM79.3708 17.7642C79.3708 18.412 79.657 18.894 80.2294 19.2103C80.8018 19.5417 81.5173 19.7074 82.3759 19.7074C83.2044 19.7074 83.8747 19.5266 84.3869 19.1651C84.899 18.8187 85.1551 18.3517 85.1551 17.7642C85.1551 17.3274 84.9819 16.9508 84.6354 16.6345C84.289 16.3332 83.6337 16.1449 82.6697 16.0696C81.9466 16.0244 81.3064 15.9566 80.7491 15.8663C80.2219 16.1525 79.8604 16.4613 79.6646 16.7927C79.4687 17.1241 79.3708 17.4479 79.3708 17.7642Z" fill="#004AAD"/>
<path d="M74.935 16.3407C73.8354 16.3407 72.9617 16.077 72.314 15.5498C71.6663 15.0076 71.3424 14.051 71.3424 12.6803V7.14453H69.4219V5.13358H71.3424L71.6362 2.28662H73.7375V5.13358H76.9008V7.14453H73.7375V12.6803C73.7375 13.2979 73.8655 13.7272 74.1216 13.9682C74.3928 14.1941 74.8522 14.3071 75.4999 14.3071L79.1325 14.3737L78.6786 16.3407L74.935 16.3407Z" fill="#004AAD"/>
<path d="M58.4902 16.3408V5.13369H60.6142L60.7949 7.09945C61.1414 6.40653 61.646 5.86426 62.3088 5.47261C62.9866 5.0659 63.7624 4.86255 64.636 4.86255C65.9917 4.86255 67.0537 5.28432 67.8219 6.12786C68.6052 6.97141 68.9969 8.22919 68.9969 9.90121V16.3408H66.6244V10.1498C66.6244 7.98065 65.7357 6.89609 63.9582 6.89609C63.0695 6.89609 62.3314 7.21242 61.7439 7.84508C61.1715 8.47773 60.8853 9.38153 60.8853 10.5565V16.3408H58.4902Z" fill="#004AAD"/>
<path d="M52.1175 16.6119C51.0179 16.6119 50.0387 16.3709 49.1801 15.8889C48.3366 15.3918 47.6738 14.7064 47.1918 13.8327C46.7098 12.9591 46.4688 11.9423 46.4688 10.7824C46.4688 9.60748 46.7022 8.57565 47.1692 7.68691C47.6512 6.79818 48.314 6.10527 49.1575 5.60818C50.0162 5.11109 51.0103 4.86255 52.1401 4.86255C53.2397 4.86255 54.1962 5.11109 55.0096 5.60818C55.823 6.09021 56.4557 6.73793 56.9076 7.55134C57.3595 8.36476 57.5854 9.26102 57.5854 10.2401C57.5854 10.3908 57.5779 10.5565 57.5629 10.7372C57.5629 10.9029 57.5553 11.0912 57.5403 11.3021H48.8186C48.8939 12.3867 49.2479 13.2151 49.8806 13.7875C50.5283 14.3449 51.2739 14.6236 52.1175 14.6236C52.7953 14.6236 53.3602 14.4729 53.8121 14.1717C54.2791 13.8553 54.6255 13.4336 54.8515 12.9063H57.2465C56.9453 13.9608 56.3427 14.842 55.4389 15.5499C54.5502 16.2579 53.443 16.6119 52.1175 16.6119ZM52.1175 6.82831C51.3191 6.82831 50.6112 7.06932 49.9936 7.55134C49.376 8.0183 48.9994 8.72628 48.8638 9.67526H55.1904C55.1452 8.80159 54.8364 8.10868 54.264 7.59653C53.6916 7.08438 52.9761 6.82831 52.1175 6.82831Z" fill="#004AAD"/>
<path d="M40.0366 16.3407L35.834 5.13367H38.342L41.4601 14.0587L44.5782 5.13367H47.0637L42.8836 16.3407H40.0366Z" fill="#004AAD"/>
<path d="M30.9651 16.6119C29.8655 16.6119 28.8864 16.3709 28.0278 15.8889C27.1843 15.3918 26.5215 14.7064 26.0394 13.8327C25.5574 12.9591 25.3164 11.9423 25.3164 10.7824C25.3164 9.60748 25.5499 8.57565 26.0168 7.68691C26.4989 6.79818 27.1617 6.10527 28.0052 5.60818C28.8638 5.11109 29.858 4.86255 30.9877 4.86255C32.0873 4.86255 33.0439 5.11109 33.8573 5.60818C34.6707 6.09021 35.3034 6.73793 35.7553 7.55134C36.2072 8.36476 36.4331 9.26102 36.4331 10.2401C36.4331 10.3908 36.4256 10.5565 36.4105 10.7372C36.4105 10.9029 36.403 11.0912 36.3879 11.3021H27.6663C27.7416 12.3867 28.0956 13.2151 28.7282 13.7875C29.376 14.3449 30.1216 14.6236 30.9651 14.6236C31.643 14.6236 32.2079 14.4729 32.6598 14.1717C33.1267 13.8553 33.4732 13.4336 33.6991 12.9063H36.0942C35.7929 13.9608 35.1904 14.842 34.2866 15.5499C33.3979 16.2579 32.2907 16.6119 30.9651 16.6119ZM30.9651 6.82831C30.1668 6.82831 29.4588 7.06932 28.8412 7.55134C28.2236 8.0183 27.847 8.72628 27.7115 9.67526H34.038C33.9929 8.80159 33.6841 8.10868 33.1117 7.59653C32.5392 7.08438 31.8237 6.82831 30.9651 6.82831Z" fill="#004AAD"/>
<path d="M0 9.21034C0 4.22086 4.26201 0.270604 9.24147 0.58676C9.55308 0.606545 9.79869 0.86524 9.79869 1.17748V9.03657C9.79869 9.45747 9.45747 9.79869 9.03657 9.79869H0.58835C0.263414 9.79869 0 9.53527 0 9.21034Z" fill="#FFBA3B"/>
<path d="M20.5781 12.3468C20.5781 17.3363 16.3161 21.2865 11.3367 20.9704C11.025 20.9506 10.7794 20.6919 10.7794 20.3796V12.5206C10.7794 12.0997 11.1207 11.7584 11.5416 11.7584H19.9898C20.3147 11.7584 20.5781 12.0219 20.5781 12.3468Z" fill="#004AAD"/>
<path d="M20.5781 1.46536C20.5781 1.02546 20.2067 0.676901 19.7677 0.704775L11.4933 1.23014C11.0919 1.25562 10.7794 1.58857 10.7794 1.99072V9.68989C10.7794 10.1108 11.1207 10.452 11.5416 10.452H19.816C20.2369 10.452 20.5781 10.1108 20.5781 9.68989V1.46536Z" fill="#FFBA3B"/>
<path d="M0 20.0919C0 20.5318 0.37139 20.8804 0.810411 20.8525L9.08486 20.3271C9.48621 20.3016 9.79869 19.9687 9.79869 19.5665V11.8674C9.79869 11.4465 9.45747 11.1052 9.03657 11.1052H0.762121C0.341214 11.1052 0 11.4465 0 11.8674V20.0919Z" fill="#004AAD"/>
</svg>
