<svg width="272" height="48" viewBox="0 0 272 48" fill="none" xmlns="http://www.w3.org/2000/svg">
<path d="M260.379 36.9187C258.2 36.9187 256.237 36.4278 254.488 35.4459C252.77 34.4334 251.404 33.0374 250.392 31.2578C249.379 29.4475 248.873 27.3458 248.873 24.9525C248.873 22.5593 249.379 20.4729 250.392 18.6933C251.435 16.883 252.831 15.487 254.58 14.5051C256.329 13.4926 258.277 12.9863 260.425 12.9863C262.603 12.9863 264.552 13.4926 266.27 14.5051C268.019 15.487 269.4 16.883 270.412 18.6933C271.455 20.4729 271.977 22.5593 271.977 24.9525C271.977 27.3458 271.455 29.4475 270.412 31.2578C269.4 33.0374 268.019 34.4334 266.27 35.4459C264.521 36.4278 262.557 36.9187 260.379 36.9187ZM260.379 32.7305C261.545 32.7305 262.619 32.4391 263.601 31.8561C264.613 31.2731 265.426 30.414 266.04 29.2788C266.653 28.1128 266.96 26.6707 266.96 24.9525C266.96 23.2343 266.653 21.8076 266.04 20.6723C265.457 19.5064 264.659 18.6319 263.647 18.0489C262.665 17.466 261.591 17.1745 260.425 17.1745C259.259 17.1745 258.17 17.466 257.157 18.0489C256.175 18.6319 255.378 19.5064 254.764 20.6723C254.15 21.8076 253.844 23.2343 253.844 24.9525C253.844 26.6707 254.15 28.1128 254.764 29.2788C255.378 30.414 256.175 31.2731 257.157 31.8561C258.139 32.4391 259.213 32.7305 260.379 32.7305Z" fill="#004AAD"/>
<path d="M210.765 36.3664V13.5386H215.091L215.505 16.7603C216.241 15.5943 217.208 14.6739 218.405 13.9989C219.632 13.3238 221.043 12.9863 222.639 12.9863C226.259 12.9863 228.775 14.4131 230.187 17.2665C231.015 15.9472 232.12 14.904 233.5 14.1369C234.912 13.3699 236.43 12.9863 238.057 12.9863C240.91 12.9863 243.15 13.8454 244.776 15.5637C246.402 17.2819 247.215 19.8439 247.215 23.2496V36.3664H242.337V23.7559C242.337 19.3376 240.649 17.1285 237.274 17.1285C235.556 17.1285 234.145 17.7728 233.04 19.0615C231.966 20.3501 231.429 22.1911 231.429 24.5843V36.3664H226.551V23.7559C226.551 19.3376 224.848 17.1285 221.442 17.1285C219.755 17.1285 218.358 17.7728 217.254 19.0615C216.18 20.3501 215.643 22.1911 215.643 24.5843V36.3664H210.765Z" fill="#004AAD"/>
<path d="M191.029 36.3665V32.4085L203.225 17.5888H191.213V13.5387H208.748V17.4967L196.459 32.3164H208.978V36.3665H191.029Z" fill="#004AAD"/>
<path d="M186.89 9.21259C185.969 9.21259 185.202 8.93644 184.589 8.38416C184.006 7.80119 183.714 7.08015 183.714 6.22104C183.714 5.36193 184.006 4.65623 184.589 4.10394C185.202 3.52098 185.969 3.22949 186.89 3.22949C187.81 3.22949 188.562 3.52098 189.145 4.10394C189.759 4.65623 190.065 5.36193 190.065 6.22104C190.065 7.08015 189.759 7.80119 189.145 8.38416C188.562 8.93644 187.81 9.21259 186.89 9.21259ZM184.45 36.3666V13.5388H189.329V36.3666H184.45Z" fill="#004AAD"/>
<path d="M170.894 29.3708C169.698 29.3708 168.593 29.2327 167.581 28.9566L165.602 30.8896C165.939 31.1044 166.353 31.2885 166.844 31.4419C167.335 31.5953 168.025 31.7334 168.915 31.8561C169.805 31.9788 171.017 32.1015 172.551 32.2243C175.589 32.5004 177.783 33.2368 179.133 34.4334C180.483 35.5994 181.158 37.1642 181.158 39.1278C181.158 40.4779 180.789 41.7512 180.053 42.9478C179.347 44.1751 178.227 45.157 176.693 45.8933C175.19 46.6604 173.257 47.0439 170.894 47.0439C167.703 47.0439 165.111 46.4303 163.116 45.203C161.153 44.0064 160.171 42.1808 160.171 39.7262C160.171 38.775 160.416 37.8238 160.907 36.8727C161.429 35.9522 162.242 35.0778 163.346 34.2493C162.702 33.9732 162.134 33.6817 161.644 33.3749C161.183 33.0374 160.769 32.6999 160.401 32.3623V31.2578L164.359 27.2077C162.579 25.6736 161.69 23.6639 161.69 21.1786C161.69 19.6751 162.042 18.3097 162.748 17.0824C163.484 15.8245 164.543 14.8273 165.924 14.0909C167.304 13.3545 168.961 12.9863 170.894 12.9863C172.183 12.9863 173.38 13.1704 174.484 13.5386H182.999V16.7603L178.948 16.9904C179.685 18.2484 180.053 19.6444 180.053 21.1786C180.053 22.7127 179.685 24.0934 178.948 25.3207C178.243 26.548 177.2 27.5299 175.819 28.2662C174.469 29.0026 172.827 29.3708 170.894 29.3708ZM170.894 25.5508C172.306 25.5508 173.441 25.1826 174.3 24.4463C175.19 23.6792 175.635 22.6053 175.635 21.2246C175.635 19.8132 175.19 18.7393 174.3 18.0029C173.441 17.2665 172.306 16.8984 170.894 16.8984C169.452 16.8984 168.286 17.2665 167.396 18.0029C166.537 18.7393 166.108 19.8132 166.108 21.2246C166.108 22.6053 166.537 23.6792 167.396 24.4463C168.286 25.1826 169.452 25.5508 170.894 25.5508ZM164.773 39.2659C164.773 40.5853 165.356 41.5671 166.522 42.2114C167.688 42.8865 169.145 43.224 170.894 43.224C172.582 43.224 173.947 42.8558 174.99 42.1194C176.034 41.4137 176.555 40.4625 176.555 39.2659C176.555 38.3761 176.202 37.6091 175.497 36.9647C174.791 36.3511 173.456 35.9675 171.493 35.8141C170.02 35.7221 168.716 35.584 167.581 35.3999C166.507 35.9829 165.77 36.6119 165.371 37.2869C164.973 37.9619 164.773 38.6216 164.773 39.2659Z" fill="#004AAD"/>
<path d="M155.739 36.3667C153.499 36.3667 151.719 35.8297 150.4 34.7558C149.081 33.6513 148.421 31.7029 148.421 28.9108V17.635H144.509V13.5389H148.421L149.019 7.73987H153.3V13.5389H159.743V17.635H153.3V28.9108C153.3 30.1688 153.56 31.0433 154.082 31.5342C154.634 31.9944 155.57 32.2245 156.889 32.2245L164.289 32.3602L163.364 36.3667L155.739 36.3667Z" fill="#004AAD"/>
<path d="M122.241 36.3664V13.5386H126.567L126.935 17.5427C127.641 16.1313 128.669 15.0267 130.019 14.229C131.399 13.4005 132.98 12.9863 134.759 12.9863C137.521 12.9863 139.684 13.8454 141.249 15.5637C142.844 17.2819 143.642 19.8439 143.642 23.2496V36.3664H138.809V23.7559C138.809 19.3376 136.999 17.1285 133.378 17.1285C131.568 17.1285 130.065 17.7728 128.868 19.0615C127.702 20.3501 127.119 22.1911 127.119 24.5843V36.3664H122.241Z" fill="#004AAD"/>
<path d="M109.263 36.9187C107.023 36.9187 105.028 36.4278 103.28 35.4459C101.561 34.4334 100.211 33.0374 99.2295 31.2578C98.2476 29.4782 97.7567 27.4071 97.7567 25.0446C97.7567 22.6513 98.2323 20.5496 99.1835 18.7393C100.165 16.929 101.515 15.5176 103.234 14.5051C104.982 13.4926 107.007 12.9863 109.309 12.9863C111.549 12.9863 113.497 13.4926 115.154 14.5051C116.811 15.487 118.099 16.8063 119.02 18.4632C119.94 20.12 120.4 21.9456 120.4 23.94C120.4 24.2468 120.385 24.5843 120.354 24.9525C120.354 25.29 120.339 25.6736 120.308 26.1031H102.543C102.697 28.3123 103.418 29.9998 104.706 31.1657C106.026 32.301 107.544 32.8686 109.263 32.8686C110.643 32.8686 111.794 32.5618 112.714 31.9481C113.666 31.3038 114.371 30.4447 114.832 29.3708H119.71C119.096 31.5186 117.869 33.3135 116.028 34.7556C114.218 36.1977 111.963 36.9187 109.263 36.9187ZM109.263 16.9904C107.636 16.9904 106.194 17.4813 104.936 18.4632C103.678 19.4143 102.911 20.8564 102.635 22.7894H115.522C115.43 21.0098 114.801 19.5984 113.635 18.5552C112.469 17.512 111.012 16.9904 109.263 16.9904Z" fill="#004AAD"/>
<path d="M84.6529 36.3665L76.0925 13.5387H81.2011L87.5524 31.7181L93.9037 13.5387H98.9663L90.4519 36.3665H84.6529Z" fill="#004AAD"/>
<path d="M66.1766 36.9187C63.9367 36.9187 61.9424 36.4278 60.1935 35.4459C58.4753 34.4334 57.1252 33.0374 56.1434 31.2578C55.1615 29.4782 54.6706 27.4071 54.6706 25.0446C54.6706 22.6513 55.1462 20.5496 56.0974 18.7393C57.0792 16.929 58.4292 15.5176 60.1475 14.5051C61.8964 13.4926 63.9214 12.9863 66.2226 12.9863C68.4624 12.9863 70.4108 13.4926 72.0676 14.5051C73.7245 15.487 75.0131 16.8063 75.9336 18.4632C76.8541 20.12 77.3143 21.9456 77.3143 23.94C77.3143 24.2468 77.299 24.5843 77.2683 24.9525C77.2683 25.29 77.253 25.6736 77.2223 26.1031H59.4571C59.6105 28.3123 60.3316 29.9998 61.6202 31.1657C62.9396 32.301 64.4584 32.8686 66.1766 32.8686C67.5573 32.8686 68.7079 32.5618 69.6284 31.9481C70.5795 31.3038 71.2852 30.4447 71.7455 29.3708H76.624C76.0103 31.5186 74.783 33.3135 72.9421 34.7556C71.1318 36.1977 68.8766 36.9187 66.1766 36.9187ZM66.1766 16.9904C64.5504 16.9904 63.1083 17.4813 61.8503 18.4632C60.5924 19.4143 59.8253 20.8564 59.5491 22.7894H72.4358C72.3438 21.0098 71.7148 19.5984 70.5488 18.5552C69.3829 17.512 67.9255 16.9904 66.1766 16.9904Z" fill="#004AAD"/>
<path d="M0.0229492 1.8C0.0229492 0.824893 0.846186 0.052269 1.81934 0.114056L20.1608 1.27859C21.0504 1.33508 21.7431 2.0731 21.7431 2.96454V20.0308C21.7431 20.9638 20.9867 21.7201 20.0537 21.7201H1.71229C0.779291 21.7201 0.0229492 20.9638 0.0229492 20.0308V1.8Z" fill="#FFBA3B"/>
<path d="M45.6353 45.9843C45.6353 46.9594 44.8121 47.732 43.8389 47.6702L25.4975 46.5057C24.6078 46.4492 23.9152 45.7112 23.9152 44.8198V27.7535C23.9152 26.8205 24.6715 26.0642 25.6045 26.0642H43.946C44.879 26.0642 45.6353 26.8205 45.6353 27.7535V45.9843Z" fill="#004AAD"/>
<path d="M45.6353 3.248C45.6353 2.27289 44.8121 1.50027 43.8389 1.56205L25.4975 2.72659C24.6078 2.78308 23.9152 3.5211 23.9152 4.41254V21.4788C23.9152 22.4118 24.6715 23.1681 25.6045 23.1681H43.946C44.879 23.1681 45.6353 22.4118 45.6353 21.4788V3.248Z" fill="#FFBA3B"/>
<path d="M0.0230103 44.5362C0.0230103 45.5113 0.846247 46.2839 1.8194 46.2221L20.1608 45.0576C21.0505 45.0011 21.7431 44.2631 21.7431 43.3716V26.3054C21.7431 25.3724 20.9868 24.6161 20.0538 24.6161H1.71235C0.779352 24.6161 0.0230103 25.3724 0.0230103 26.3054V44.5362Z" fill="#004AAD"/>
</svg>
