<svg width="301" height="53" viewBox="0 0 301 53" fill="none" xmlns="http://www.w3.org/2000/svg">
<path d="M288.163 40.8618C285.752 40.8618 283.579 40.3184 281.643 39.2317C279.741 38.1111 278.23 36.5659 277.109 34.5963C275.989 32.5926 275.428 30.2664 275.428 27.6176C275.428 24.9687 275.989 22.6595 277.109 20.6898C278.264 18.6862 279.809 17.141 281.745 16.0543C283.681 14.9337 285.837 14.3733 288.214 14.3733C290.625 14.3733 292.782 14.9337 294.683 16.0543C296.619 17.141 298.147 18.6862 299.268 20.6898C300.423 22.6595 301 24.9687 301 27.6176C301 30.2664 300.423 32.5926 299.268 34.5963C298.147 36.5659 296.619 38.1111 294.683 39.2317C292.748 40.3184 290.574 40.8618 288.163 40.8618ZM288.163 36.2263C289.454 36.2263 290.642 35.9037 291.729 35.2585C292.85 34.6132 293.75 33.6624 294.429 32.4059C295.108 31.1154 295.448 29.5193 295.448 27.6176C295.448 25.7158 295.108 24.1367 294.429 22.8802C293.783 21.5897 292.901 20.6219 291.78 19.9767C290.693 19.3314 289.505 19.0088 288.214 19.0088C286.924 19.0088 285.718 19.3314 284.597 19.9767C283.511 20.6219 282.628 21.5897 281.949 22.8802C281.269 24.1367 280.93 25.7158 280.93 27.6176C280.93 29.5193 281.269 31.1154 281.949 32.4059C282.628 33.6624 283.511 34.6132 284.597 35.2585C285.684 35.9037 286.873 36.2263 288.163 36.2263Z" fill="white"/>
<path d="M233.25 40.2505V14.9846H238.038L238.497 18.5504C239.312 17.2599 240.381 16.2411 241.706 15.494C243.064 14.7469 244.626 14.3733 246.392 14.3733C250.399 14.3733 253.184 15.9525 254.746 19.1107C255.663 17.6504 256.886 16.4958 258.414 15.6468C259.976 14.7978 261.657 14.3733 263.457 14.3733C266.615 14.3733 269.094 15.3242 270.894 17.2259C272.694 19.1277 273.594 21.9633 273.594 25.7328V40.2505H268.194V26.2931C268.194 21.403 266.326 18.9579 262.591 18.9579C260.689 18.9579 259.127 19.671 257.904 21.0973C256.716 22.5236 256.122 24.5612 256.122 27.2101V40.2505H250.722V26.2931C250.722 21.403 248.837 18.9579 245.068 18.9579C243.2 18.9579 241.655 19.671 240.432 21.0973C239.244 22.5236 238.649 24.5612 238.649 27.2101V40.2505H233.25Z" fill="white"/>
<path d="M211.406 40.2505V35.8697L224.905 19.4673H211.61V14.9846H231.018V19.3654L217.417 35.7678H231.272V40.2505H211.406Z" fill="white"/>
<path d="M206.825 10.1964C205.806 10.1964 204.957 9.89075 204.278 9.27947C203.633 8.63424 203.31 7.83619 203.31 6.88532C203.31 5.93446 203.633 5.15339 204.278 4.54211C204.957 3.89688 205.806 3.57426 206.825 3.57426C207.844 3.57426 208.676 3.89688 209.321 4.54211C210 5.15339 210.34 5.93446 210.34 6.88532C210.34 7.83619 210 8.63424 209.321 9.27947C208.676 9.89075 207.844 10.1964 206.825 10.1964ZM204.125 40.2506V14.9847H209.525V40.2506H204.125Z" fill="white"/>
<path d="M189.121 32.5077C187.797 32.5077 186.574 32.3549 185.454 32.0493L183.263 34.1887C183.637 34.4265 184.095 34.6302 184.639 34.8C185.182 34.9698 185.946 35.1226 186.931 35.2585C187.916 35.3943 189.257 35.5302 190.955 35.666C194.317 35.9716 196.745 36.7867 198.239 38.1111C199.734 39.4015 200.481 41.1335 200.481 43.3069C200.481 44.8011 200.073 46.2104 199.258 47.5349C198.477 48.8932 197.238 49.9799 195.54 50.795C193.876 51.644 191.736 52.0685 189.121 52.0685C185.589 52.0685 182.72 51.3893 180.512 50.0309C178.339 48.7065 177.252 46.6859 177.252 43.9691C177.252 42.9164 177.524 41.8636 178.067 40.8109C178.645 39.7921 179.545 38.8242 180.767 37.9073C180.054 37.6017 179.426 37.2791 178.882 36.9395C178.373 36.5659 177.915 36.1924 177.507 35.8188V34.5963L181.888 30.1136C179.918 28.4156 178.933 26.1913 178.933 23.4405C178.933 21.7765 179.324 20.2653 180.105 18.9069C180.92 17.5146 182.092 16.4109 183.62 15.5959C185.148 14.7809 186.982 14.3733 189.121 14.3733C190.547 14.3733 191.872 14.5771 193.094 14.9846H202.518V18.5504L198.036 18.8051C198.851 20.1974 199.258 21.7426 199.258 23.4405C199.258 25.1385 198.851 26.6667 198.036 28.0251C197.255 29.3835 196.1 30.4702 194.572 31.2852C193.077 32.1002 191.261 32.5077 189.121 32.5077ZM189.121 28.2798C190.683 28.2798 191.94 27.8723 192.891 27.0572C193.876 26.2082 194.368 25.0197 194.368 23.4915C194.368 21.9293 193.876 20.7408 192.891 19.9257C191.94 19.1107 190.683 18.7032 189.121 18.7032C187.525 18.7032 186.235 19.1107 185.25 19.9257C184.299 20.7408 183.823 21.9293 183.823 23.4915C183.823 25.0197 184.299 26.2082 185.25 27.0572C186.235 27.8723 187.525 28.2798 189.121 28.2798ZM182.346 43.4597C182.346 44.92 182.991 46.0067 184.282 46.7198C185.572 47.4669 187.185 47.8405 189.121 47.8405C190.989 47.8405 192.5 47.433 193.655 46.618C194.809 45.8369 195.387 44.7841 195.387 43.4597C195.387 42.4749 194.996 41.6259 194.215 40.9127C193.434 40.2336 191.957 39.8091 189.783 39.6393C188.153 39.5374 186.71 39.3846 185.454 39.1808C184.265 39.826 183.45 40.5222 183.008 41.2693C182.567 42.0164 182.346 42.7466 182.346 43.4597Z" fill="white"/>
<path d="M172.347 40.2506C169.868 40.2506 167.898 39.6563 166.438 38.4677C164.978 37.2452 164.248 35.0888 164.248 31.9984V19.5183H159.918V14.9847H164.248L164.91 8.56633H169.647V14.9847H176.779V19.5183H169.647V31.9984C169.647 33.3908 169.936 34.3586 170.513 34.902C171.124 35.4114 172.16 35.6661 173.62 35.6661L181.81 35.8163L180.787 40.2507L172.347 40.2506Z" fill="white"/>
<path d="M135.271 40.2505V14.9846H140.059L140.467 19.4163C141.248 17.8542 142.386 16.6316 143.88 15.7487C145.408 14.8318 147.157 14.3733 149.127 14.3733C152.183 14.3733 154.577 15.3242 156.309 17.2259C158.075 19.1277 158.958 21.9633 158.958 25.7328V40.2505H153.609V26.2931C153.609 21.403 151.606 18.9579 147.598 18.9579C145.595 18.9579 143.931 19.671 142.606 21.0973C141.316 22.5236 140.671 24.5612 140.671 27.2101V40.2505H135.271Z" fill="white"/>
<path d="M120.907 40.8618C118.428 40.8618 116.221 40.3184 114.285 39.2317C112.383 38.1111 110.889 36.5659 109.802 34.5963C108.716 32.6266 108.172 30.3343 108.172 27.7195C108.172 25.0706 108.699 22.7444 109.751 20.7408C110.838 18.7371 112.332 17.175 114.234 16.0543C116.17 14.9337 118.411 14.3733 120.958 14.3733C123.437 14.3733 125.593 14.9337 127.427 16.0543C129.261 17.141 130.687 18.6013 131.706 20.4351C132.725 22.2689 133.234 24.2895 133.234 26.4969C133.234 26.8365 133.217 27.2101 133.183 27.6176C133.183 27.9911 133.166 28.4156 133.132 28.8911H113.47C113.64 31.3361 114.438 33.2039 115.864 34.4944C117.324 35.7509 119.005 36.3791 120.907 36.3791C122.435 36.3791 123.709 36.0395 124.727 35.3604C125.78 34.6472 126.561 33.6963 127.071 32.5077H132.47C131.791 34.8849 130.433 36.8716 128.395 38.4677C126.391 40.0638 123.895 40.8618 120.907 40.8618ZM120.907 18.8051C119.107 18.8051 117.511 19.3484 116.119 20.4351C114.726 21.4879 113.877 23.084 113.572 25.2234H127.835C127.733 23.2538 127.037 21.6916 125.746 20.537C124.456 19.3824 122.843 18.8051 120.907 18.8051Z" fill="white"/>
<path d="M93.6688 40.2505L84.1941 14.9846H89.8484L96.878 35.1056L103.908 14.9846H109.511L100.087 40.2505H93.6688Z" fill="white"/>
<path d="M73.2191 40.8618C70.74 40.8618 68.5327 40.3184 66.597 39.2317C64.6952 38.1111 63.201 36.5659 62.1143 34.5963C61.0276 32.6266 60.4842 30.3343 60.4842 27.7195C60.4842 25.0706 61.0106 22.7444 62.0634 20.7408C63.1501 18.7371 64.6443 17.175 66.546 16.0543C68.4817 14.9337 70.7231 14.3733 73.27 14.3733C75.7491 14.3733 77.9055 14.9337 79.7393 16.0543C81.5731 17.141 82.9994 18.6013 84.0182 20.4351C85.037 22.2689 85.5464 24.2895 85.5464 26.4969C85.5464 26.8365 85.5294 27.2101 85.4955 27.6176C85.4955 27.9911 85.4785 28.4156 85.4445 28.8911H65.7819C65.9517 31.3361 66.7498 33.2039 68.1761 34.4944C69.6363 35.7509 71.3173 36.3791 73.2191 36.3791C74.7473 36.3791 76.0208 36.0395 77.0395 35.3604C78.0923 34.6472 78.8734 33.6963 79.3827 32.5077H84.7823C84.1031 34.8849 82.7447 36.8716 80.7072 38.4677C78.7036 40.0638 76.2075 40.8618 73.2191 40.8618ZM73.2191 18.8051C71.4192 18.8051 69.8231 19.3484 68.4308 20.4351C67.0384 21.4879 66.1895 23.084 65.8838 25.2234H80.1468C80.045 23.2538 79.3488 21.6916 78.0583 20.537C76.7679 19.3824 75.1548 18.8051 73.2191 18.8051Z" fill="white"/>
<path d="M0 1.99226C0 0.913 0.911163 0.0578516 1.98825 0.126238L22.2887 1.41515C23.2733 1.47767 24.0399 2.29452 24.0399 3.28117V22.1702C24.0399 23.2028 23.2028 24.0399 22.1702 24.0399H1.86978C0.837128 24.0399 0 23.2028 0 22.1702V1.99226Z" fill="#FFBA3B"/>
<path d="M50.484 50.8956C50.484 51.9748 49.5728 52.83 48.4957 52.7616L28.1953 51.4727C27.2106 51.4101 26.444 50.5933 26.444 49.6066V30.7176C26.444 29.685 27.2811 28.8479 28.3138 28.8479H48.6142C49.6468 28.8479 50.484 29.685 50.484 30.7176V50.8956Z" fill="white"/>
<path d="M50.484 3.59501C50.484 2.51575 49.5728 1.6606 48.4957 1.72899L28.1953 3.0179C27.2106 3.08042 26.444 3.89727 26.444 4.88392V23.7729C26.444 24.8056 27.2811 25.6427 28.3138 25.6427H48.6142C49.6468 25.6427 50.484 24.8056 50.484 23.7729V3.59501Z" fill="#FFBA3B"/>
<path d="M3.05176e-05 49.2928C3.05176e-05 50.372 0.911193 51.2272 1.98828 51.1588L22.2887 49.8699C23.2733 49.8073 24.04 48.9905 24.04 48.0039V29.1148C24.04 28.0822 23.2028 27.2451 22.1702 27.2451H1.86981C0.837159 27.2451 3.05176e-05 28.0822 3.05176e-05 29.1148V49.2928Z" fill="white"/>
</svg>
